<svg width="268" height="208" viewBox="0 0 268 208" fill="none" xmlns="http://www.w3.org/2000/svg">
<path d="M64 94.5C76.5 90.6667 103.7 81.2 112.5 74C123.5 65 155.5 49 175.5 47" stroke="#0A84FF" stroke-width="1.7"/>
<path d="M78.7542 101.57C91.2542 97.737 126.676 76.1172 135.476 68.9172" stroke="#0A84FF" stroke-width="1.7"/>
<path d="M73.5042 163.036C86.0042 159.202 98.014 159.201 108.506 154.818C122.766 148.861 143.894 154.818 163.087 142.222" stroke="#0A84FF" stroke-width="1.7"/>
<path d="M64.6953 155.032C77.1953 151.198 89.205 151.196 99.6966 146.814C113.957 140.857 113.608 143.459 132.802 130.863" stroke="#0A84FF" stroke-width="1.7"/>
<path d="M62.6953 132.143C75.1953 128.31 106.732 125.428 118.102 125.428C135.497 125.428 149.292 129.626 168.486 117.031" stroke="#0A84FF" stroke-width="1.7"/>
<path d="M114.5 177.07C127 173.237 140.6 168.197 151.091 163.815C165.352 157.858 163.687 152.419 182.881 139.823" stroke="#0A84FF" stroke-width="1.7"/>
<path d="M111.5 186.78C124 182.947 137.6 177.908 148.091 173.525" stroke="#0A84FF" stroke-width="1.7"/>
<path d="M124.388 166.482C136.888 162.649 149.941 162.431 160.432 158.048C174.693 152.092 184.944 162.951 204.107 153.227" stroke="#0A84FF" stroke-width="1.7"/>
<path d="M88.0995 114.218C100.599 110.385 119.448 103.757 130.819 103.757C145.204 103.757 175.769 105.757 195.769 103.757" stroke="#0A84FF" stroke-width="1.7"/>
<path d="M112.5 100.25C124.716 96.3461 159.204 88.3202 179.204 86.3202" stroke="#0A84FF" stroke-width="1.7"/>
<path d="M156.447 73.6815C168.663 69.7776 186.457 79.0155 206.457 77.0155" stroke="#0A84FF" stroke-width="1.7"/>
<path d="M151.317 133.116C163.532 129.212 174.671 123.935 196.188 119.534" stroke="#0A84FF" stroke-width="1.7"/>
<path d="M84.6953 61.3173C99.3097 63.8749 104.079 69.4721 115.02 65.7017C127.743 61.3173 165.374 51.1713 185.374 49.1713" stroke="#0A84FF" stroke-width="1.7"/>
<path d="M95.8389 31.7662C110.453 34.3238 120.102 46.2098 129.731 52.629C141.38 60.3949 175.742 73.5585 195.742 71.5585" stroke="#0A84FF" stroke-width="1.7"/>
<path d="M120.744 18.0738C135.358 20.6314 147.238 26.8455 156.867 33.2647C168.516 41.0307 184.552 43.7322 204.552 41.7322" stroke="#0A84FF" stroke-width="1.7"/>
<path d="M117 44.3481C131.614 46.9056 163.707 63.7925 175.356 63.7925" stroke="#0A84FF" stroke-width="1.7"/>
<path d="M84.1953 63.4164C85.4931 63.4164 86.5453 62.3643 86.5453 61.0664C86.5453 59.7685 85.4931 58.7164 84.1953 58.7164C82.8974 58.7164 81.8453 59.7685 81.8453 61.0664C81.8453 62.3643 82.8974 63.4164 84.1953 63.4164Z" fill="white" fill-opacity="0.7" stroke="#0A84FF" stroke-width="1.7"/>
<path d="M88.1953 116.068C89.4931 116.068 90.5453 115.016 90.5453 113.718C90.5453 112.421 89.4931 111.368 88.1953 111.368C86.8974 111.368 85.8453 112.421 85.8453 113.718C85.8453 115.016 86.8974 116.068 88.1953 116.068Z" fill="white" fill-opacity="0.7" stroke="#0A84FF" stroke-width="1.7"/>
<path d="M63.1953 134.068C64.4931 134.068 65.5453 133.016 65.5453 131.718C65.5453 130.421 64.4931 129.368 63.1953 129.368C61.8974 129.368 60.8453 130.421 60.8453 131.718C60.8453 133.016 61.8974 134.068 63.1953 134.068Z" fill="white" fill-opacity="0.7" stroke="#0A84FF" stroke-width="1.7"/>
<path d="M74.1953 165.068C75.4931 165.068 76.5453 164.016 76.5453 162.718C76.5453 161.421 75.4931 160.368 74.1953 160.368C72.8974 160.368 71.8453 161.421 71.8453 162.718C71.8453 164.016 72.8974 165.068 74.1953 165.068Z" fill="white" fill-opacity="0.7" stroke="#0A84FF" stroke-width="1.7"/>
<path d="M114.195 179.068C115.493 179.068 116.545 178.016 116.545 176.718C116.545 175.421 115.493 174.368 114.195 174.368C112.897 174.368 111.845 175.421 111.845 176.718C111.845 178.016 112.897 179.068 114.195 179.068Z" fill="white" fill-opacity="0.7" stroke="#0A84FF" stroke-width="1.7"/>
<path d="M112.195 189.068C113.493 189.068 114.545 188.016 114.545 186.718C114.545 185.421 113.493 184.368 112.195 184.368C110.897 184.368 109.845 185.421 109.845 186.718C109.845 188.016 110.897 189.068 112.195 189.068Z" fill="white" fill-opacity="0.7" stroke="#0A84FF" stroke-width="1.7"/>
<path d="M148.195 176.068C149.493 176.068 150.545 175.016 150.545 173.718C150.545 172.421 149.493 171.368 148.195 171.368C146.897 171.368 145.845 172.421 145.845 173.718C145.845 175.016 146.897 176.068 148.195 176.068Z" fill="white" fill-opacity="0.7" stroke="#0A84FF" stroke-width="1.7"/>
<path d="M126.195 168.068C127.493 168.068 128.545 167.016 128.545 165.718C128.545 164.421 127.493 163.368 126.195 163.368C124.897 163.368 123.845 164.421 123.845 165.718C123.845 167.016 124.897 168.068 126.195 168.068Z" fill="white" fill-opacity="0.7" stroke="#0A84FF" stroke-width="1.7"/>
<path d="M203.195 156.068C204.493 156.068 205.545 155.016 205.545 153.718C205.545 152.421 204.493 151.368 203.195 151.368C201.897 151.368 200.845 152.421 200.845 153.718C200.845 155.016 201.897 156.068 203.195 156.068Z" fill="white" fill-opacity="0.7" stroke="#0A84FF" stroke-width="1.7"/>
<path d="M64.1953 157.068C65.4931 157.068 66.5453 156.016 66.5453 154.718C66.5453 153.421 65.4931 152.368 64.1953 152.368C62.8974 152.368 61.8453 153.421 61.8453 154.718C61.8453 156.016 62.8974 157.068 64.1953 157.068Z" fill="white" fill-opacity="0.7" stroke="#0A84FF" stroke-width="1.7"/>
<path d="M133.195 133.068C134.493 133.068 135.545 132.016 135.545 130.718C135.545 129.421 134.493 128.368 133.195 128.368C131.897 128.368 130.845 129.421 130.845 130.718C130.845 132.016 131.897 133.068 133.195 133.068Z" fill="white" fill-opacity="0.7" stroke="#0A84FF" stroke-width="1.7"/>
<path d="M78.1953 104.068C79.4931 104.068 80.5453 103.016 80.5453 101.718C80.5453 100.421 79.4931 99.3684 78.1953 99.3684C76.8974 99.3684 75.8453 100.421 75.8453 101.718C75.8453 103.016 76.8974 104.068 78.1953 104.068Z" fill="white" fill-opacity="0.7" stroke="#0A84FF" stroke-width="1.7"/>
<path d="M135.195 71.0684C136.493 71.0684 137.545 70.0163 137.545 68.7184C137.545 67.4205 136.493 66.3684 135.195 66.3684C133.897 66.3684 132.845 67.4205 132.845 68.7184C132.845 70.0163 133.897 71.0684 135.195 71.0684Z" fill="white" fill-opacity="0.7" stroke="#0A84FF" stroke-width="1.7"/>
<path d="M121.195 20.0684C122.493 20.0684 123.545 19.0163 123.545 17.7184C123.545 16.4205 122.493 15.3684 121.195 15.3684C119.897 15.3684 118.845 16.4205 118.845 17.7184C118.845 19.0163 119.897 20.0684 121.195 20.0684Z" fill="white" fill-opacity="0.7" stroke="#0A84FF" stroke-width="1.7"/>
<path d="M203.195 44.0684C204.493 44.0684 205.545 43.0163 205.545 41.7184C205.545 40.4205 204.493 39.3684 203.195 39.3684C201.897 39.3684 200.845 40.4205 200.845 41.7184C200.845 43.0163 201.897 44.0684 203.195 44.0684Z" fill="white" fill-opacity="0.7" stroke="#0A84FF" stroke-width="1.7"/>
<path d="M152.195 135.068C153.493 135.068 154.545 134.016 154.545 132.718C154.545 131.421 153.493 130.368 152.195 130.368C150.897 130.368 149.845 131.421 149.845 132.718C149.845 134.016 150.897 135.068 152.195 135.068Z" fill="white" fill-opacity="0.7" stroke="#0A84FF" stroke-width="1.7"/>
<path d="M182.195 143.068C183.493 143.068 184.545 142.016 184.545 140.718C184.545 139.421 183.493 138.368 182.195 138.368C180.897 138.368 179.845 139.421 179.845 140.718C179.845 142.016 180.897 143.068 182.195 143.068Z" fill="white" fill-opacity="0.7" stroke="#0A84FF" stroke-width="1.7"/>
<path d="M163.195 145.068C164.493 145.068 165.545 144.016 165.545 142.718C165.545 141.421 164.493 140.368 163.195 140.368C161.897 140.368 160.845 141.421 160.845 142.718C160.845 144.016 161.897 145.068 163.195 145.068Z" fill="white" fill-opacity="0.7" stroke="#0A84FF" stroke-width="1.7"/>
<path d="M195.195 122.068C196.493 122.068 197.545 121.016 197.545 119.718C197.545 118.421 196.493 117.368 195.195 117.368C193.897 117.368 192.845 118.421 192.845 119.718C192.845 121.016 193.897 122.068 195.195 122.068Z" fill="white" fill-opacity="0.7" stroke="#0A84FF" stroke-width="1.7"/>
<path d="M169.195 119.068C170.493 119.068 171.545 118.016 171.545 116.718C171.545 115.421 170.493 114.368 169.195 114.368C167.897 114.368 166.845 115.421 166.845 116.718C166.845 118.016 167.897 119.068 169.195 119.068Z" fill="white" fill-opacity="0.7" stroke="#0A84FF" stroke-width="1.7"/>
<path d="M64.1953 97.0684C65.4931 97.0684 66.5453 96.0163 66.5453 94.7184C66.5453 93.4205 65.4931 92.3684 64.1953 92.3684C62.8974 92.3684 61.8453 93.4205 61.8453 94.7184C61.8453 96.0163 62.8974 97.0684 64.1953 97.0684Z" fill="white" fill-opacity="0.7" stroke="#0A84FF" stroke-width="1.7"/>
<path d="M113 102.1C114.298 102.1 115.35 101.048 115.35 99.75C115.35 98.4521 114.298 97.4 113 97.4C111.702 97.4 110.65 98.4521 110.65 99.75C110.65 101.048 111.702 102.1 113 102.1Z" fill="white" fill-opacity="0.7" stroke="#0A84FF" stroke-width="1.7"/>
<path d="M155.947 75.9615C157.245 75.9615 158.297 74.9094 158.297 73.6115C158.297 72.3136 157.245 71.2615 155.947 71.2615C154.649 71.2615 153.597 72.3136 153.597 73.6115C153.597 74.9094 154.649 75.9615 155.947 75.9615Z" fill="white" fill-opacity="0.7" stroke="#0A84FF" stroke-width="1.7"/>
<path d="M204.957 79.1527C206.255 79.1527 207.307 78.1006 207.307 76.8027C207.307 75.5049 206.255 74.4527 204.957 74.4527C203.659 74.4527 202.607 75.5049 202.607 76.8027C202.607 78.1006 203.659 79.1527 204.957 79.1527Z" fill="white" fill-opacity="0.7" stroke="#0A84FF" stroke-width="1.7"/>
<path d="M177 88.1702C178.298 88.1702 179.35 87.118 179.35 85.8202C179.35 84.5223 178.298 83.4702 177 83.4702C175.702 83.4702 174.65 84.5223 174.65 85.8202C174.65 87.118 175.702 88.1702 177 88.1702Z" fill="white" fill-opacity="0.7" stroke="#0A84FF" stroke-width="1.7"/>
<path d="M194.269 106.1C195.567 106.1 196.619 105.048 196.619 103.75C196.619 102.452 195.567 101.4 194.269 101.4C192.971 101.4 191.919 102.452 191.919 103.75C191.919 105.048 192.971 106.1 194.269 106.1Z" fill="white" fill-opacity="0.7" stroke="#0A84FF" stroke-width="1.7"/>
<path d="M185.322 50.85C186.62 50.85 187.672 49.7979 187.672 48.5C187.672 47.2021 186.62 46.15 185.322 46.15C184.024 46.15 182.972 47.2021 182.972 48.5C182.972 49.7979 184.024 50.85 185.322 50.85Z" fill="white" fill-opacity="0.7" stroke="#0A84FF" stroke-width="1.7"/>
<path d="M176.322 49.85C177.62 49.85 178.672 48.7979 178.672 47.5C178.672 46.2021 177.62 45.15 176.322 45.15C175.024 45.15 173.972 46.2021 173.972 47.5C173.972 48.7979 175.024 49.85 176.322 49.85Z" fill="white" fill-opacity="0.7" stroke="#0A84FF" stroke-width="1.7"/>
<path d="M96.3219 33.85C97.6198 33.85 98.6719 32.7979 98.6719 31.5C98.6719 30.2021 97.6198 29.15 96.3219 29.15C95.024 29.15 93.9719 30.2021 93.9719 31.5C93.9719 32.7979 95.024 33.85 96.3219 33.85Z" fill="white" fill-opacity="0.7" stroke="#0A84FF" stroke-width="1.7"/>
<path d="M117.322 46.85C118.62 46.85 119.672 45.7979 119.672 44.5C119.672 43.2021 118.62 42.15 117.322 42.15C116.024 42.15 114.972 43.2021 114.972 44.5C114.972 45.7979 116.024 46.85 117.322 46.85Z" fill="white" fill-opacity="0.7" stroke="#0A84FF" stroke-width="1.7"/>
<path d="M175.322 65.85C176.62 65.85 177.672 64.7979 177.672 63.5C177.672 62.2021 176.62 61.15 175.322 61.15C174.024 61.15 172.972 62.2021 172.972 63.5C172.972 64.7979 174.024 65.85 175.322 65.85Z" fill="white" fill-opacity="0.7" stroke="#0A84FF" stroke-width="1.7"/>
<path d="M195.322 73.85C196.62 73.85 197.672 72.7979 197.672 71.5C197.672 70.2021 196.62 69.15 195.322 69.15C194.024 69.15 192.972 70.2021 192.972 71.5C192.972 72.7979 194.024 73.85 195.322 73.85Z" fill="white" fill-opacity="0.7" stroke="#0A84FF" stroke-width="1.7"/>
<path d="M49.1904 151.257C61.6904 147.423 87.7839 130.733 98.2754 126.35C137.274 110.06 175.286 106.11 194.538 89.8198" stroke="url(#paint0_linear_61_60)" stroke-width="2"/>
<path d="M49.6904 153.107C50.9882 153.107 52.0404 152.055 52.0404 150.757C52.0404 149.459 50.9882 148.407 49.6904 148.407C48.3925 148.407 47.3404 149.459 47.3404 150.757C47.3404 152.055 48.3925 153.107 49.6904 153.107Z" fill="white" fill-opacity="0.7" stroke="#30D158" stroke-width="1.7"/>
<path d="M194.038 92.1702C195.336 92.1702 196.388 91.118 196.388 89.8202C196.388 88.5223 195.336 87.4702 194.038 87.4702C192.74 87.4702 191.688 88.5223 191.688 89.8202C191.688 91.118 192.74 92.1702 194.038 92.1702Z" fill="white" fill-opacity="0.7" stroke="#30D158" stroke-width="1.7"/>
<defs>
<linearGradient id="paint0_linear_61_60" x1="51.3736" y1="151.257" x2="194.538" y2="89.8198" gradientUnits="userSpaceOnUse">
<stop stop-color="#30D158"/>
<stop offset="0.0885417" stop-color="#FFD60A"/>
<stop offset="0.145833" stop-color="#FF9F0A"/>
<stop offset="0.197917" stop-color="#FF453A"/>
<stop offset="0.28125" stop-color="#FF9F0A"/>
<stop offset="0.359375" stop-color="#FFD60A"/>
<stop offset="0.458333" stop-color="#FF9F0A"/>
<stop offset="0.583333" stop-color="#FFD60A"/>
<stop offset="0.697917" stop-color="#FF9F0A"/>
<stop offset="0.776042" stop-color="#FF453A"/>
<stop offset="0.869792" stop-color="#FF9F0A"/>
<stop offset="0.916667" stop-color="#FFD60A"/>
<stop offset="1" stop-color="#30D158"/>
</linearGradient>
</defs>
</svg>
